<svg class="main-svg" xmlns="http://www.w3.org/2000/svg" xmlns:xlink="http://www.w3.org/1999/xlink" width="800" height="500" style="" viewBox="0 0 800 500"><rect x="0" y="0" width="800" height="500" style="fill: rgb(255, 255, 255); fill-opacity: 1;"/><defs id="defs-6fed84"><g class="clips"><clipPath id="clip6fed84xyplot" class="plotclip"><rect width="640" height="360"/></clipPath><clipPath class="axesclip" id="clip6fed84x"><rect x="80" y="0" width="640" height="500"/></clipPath><clipPath class="axesclip" id="clip6fed84y"><rect x="0" y="60" width="800" height="360"/></clipPath><clipPath class="axesclip" id="clip6fed84xy"><rect x="80" y="60" width="640" height="360"/></clipPath></g><g class="gradients"/></defs><g class="bglayer"/><g class="layer-below"><g class="imagelayer"/><g class="shapelayer"/></g><g class="cartesianlayer"><g class="subplot xy"><g class="layer-subplot"><g class="shapelayer"/><g class="imagelayer"/></g><g class="gridlayer"><g class="x"><path class="xgrid crisp" transform="translate(167.37,0)" d="M0,60v360" style="stroke: rgb(232, 232, 232); stroke-opacity: 1; stroke-width: 1px;"/><path class="xgrid crisp" transform="translate(254.74,0)" d="M0,60v360" style="stroke: rgb(232, 232, 232); stroke-opacity: 1; stroke-width: 1px;"/><path class="xgrid crisp" transform="translate(342.12,0)" d="M0,60v360" style="stroke: rgb(232, 232, 232); stroke-opacity: 1; stroke-width: 1px;"/><path class="xgrid crisp" transform="translate(429.49,0)" d="M0,60v360" style="stroke: rgb(232, 232, 232); stroke-opacity: 1; stroke-width: 1px;"/><path class="xgrid crisp" transform="translate(516.86,0)" d="M0,60v360" style="stroke: rgb(232, 232, 232); stroke-opacity: 1; stroke-width: 1px;"/><path class="xgrid crisp" transform="translate(604.23,0)" d="M0,60v360" style="stroke: rgb(232, 232, 232); stroke-opacity: 1; stroke-width: 1px;"/><path class="xgrid crisp" transform="translate(691.6,0)" d="M0,60v360" style="stroke: rgb(232, 232, 232); stroke-opacity: 1; stroke-width: 1px;"/></g><g class="y"><path class="ygrid crisp" transform="translate(0,402)" d="M80,0h640" style="stroke: rgb(232, 232, 232); stroke-opacity: 1; stroke-width: 1px;"/><path class="ygrid crisp" transform="translate(0,340.28)" d="M80,0h640" style="stroke: rgb(232, 232, 232); stroke-opacity: 1; stroke-width: 1px;"/><path class="ygrid crisp" transform="translate(0,278.57)" d="M80,0h640" style="stroke: rgb(232, 232, 232); stroke-opacity: 1; stroke-width: 1px;"/><path class="ygrid crisp" transform="translate(0,216.85)" d="M80,0h640" style="stroke: rgb(232, 232, 232); stroke-opacity: 1; stroke-width: 1px;"/><path class="ygrid crisp" transform="translate(0,155.14)" d="M80,0h640" style="stroke: rgb(232, 232, 232); stroke-opacity: 1; stroke-width: 1px;"/><path class="ygrid crisp" transform="translate(0,93.42)" d="M80,0h640" style="stroke: rgb(232, 232, 232); stroke-opacity: 1; stroke-width: 1px;"/></g></g><g class="zerolinelayer"/><path class="xlines-below"/><path class="ylines-below"/><g class="overlines-below"/><g class="xaxislayer-below"/><g class="yaxislayer-below"/><g class="overaxes-below"/><g class="plot" transform="translate(80, 60)" clip-path="url('#clip6fed84xyplot')"><g class="scatterlayer mlayer"><g class="trace scatter traceedde3b" style="stroke-miterlimit: 2; opacity: 1;"><g class="fills"/><g class="errorbars"/><g class="lines"><path class="js-line" d="M4.37,341.98L209.69,341.24L211.88,341.2L259.93,339.83L262.12,339.73L294.88,337.51L297.06,337.3L321.09,334.23L323.28,333.87L342.94,329.75L345.12,329.18L360.41,324.36L362.59,323.54L375.7,317.74L377.88,318.22L380.07,318.24L382.25,317.41L386.62,316.96L388.81,316.9L390.99,315.56L393.17,315.96L395.36,316.29L397.54,314.38L399.73,312.98L401.91,313.65L404.1,312.95L406.28,313.93L408.46,313.57L410.65,310.67L417.2,305.39L419.39,304.54L423.75,299.58L425.94,298.9L428.12,296.92L430.31,298.16L432.49,299.02L434.68,295.57L436.86,298.68L439.04,296.9L441.23,297.64L443.41,294.82L445.6,292.84L447.78,295.23L452.15,286.17L454.33,288.08L456.52,285.6L458.7,288.91L460.89,282.87L463.07,284.24L465.26,284.88L467.44,286.93L469.62,281.2L471.81,282.3L473.99,275.98L476.18,281.11L478.36,274.74L480.55,272.07L482.73,276.2L484.91,268.82L487.1,261.84L489.28,262.28L491.47,264.54L493.65,261.54L495.84,262.08L498.02,263.76L500.2,260.07L502.39,250.25L504.57,256.68L506.76,260.73L508.94,265.64L511.13,259.11L515.49,251.22L517.68,251.27L519.86,246.52L522.05,248.38L524.23,250.79L526.42,255.95L530.78,244.88L532.97,248.8L535.15,248.2L537.34,252.09L539.52,249.66L541.71,255.49L543.89,247.91L546.08,250.53L552.63,239.07L554.81,240.33L561.37,207.43L563.55,207.41L565.73,214.14L567.92,199.39L570.1,208.78L572.29,200.89L574.47,189.2L576.66,187.56L578.84,179.68L581.02,167.6L583.21,152.14L585.39,152.76L587.58,140.96L589.76,136.29L591.95,134.51L594.13,144.36L596.31,134.35L598.5,136.89L600.68,135.7L602.87,144.81L605.05,123.25L607.24,116.37L609.42,103.31L611.6,120.38L613.79,105.71L615.97,107.48L618.16,82.55L620.34,76L624.71,51.22L626.89,48.06L629.08,50.88L631.26,68.51L633.45,79.21L635.63,56.32L637.82,52.76L640,18" style="vector-effect: non-scaling-stroke; fill: none; stroke: rgb(31, 119, 180); stroke-opacity: 1; stroke-width: 2px; opacity: 1;"/></g><g class="points"/><g class="text"/></g><g class="trace scatter trace8cf5cb" style="stroke-miterlimit: 2; opacity: 1;"><g class="fills"/><g class="errorbars"/><g class="lines"><path class="js-line" d="M0,342L297.06,341.91" style="vector-effect: non-scaling-stroke; fill: none; stroke: rgb(255, 0, 0); stroke-opacity: 1; stroke-width: 2px; opacity: 1;"/><path class="js-line" d="M305.8,341.69L332.01,341.91L336.38,341.01L340.75,341.63L345.12,341.14L353.86,340.77L358.23,339.25L362.59,338.33L366.96,340.36L375.7,339.32L380.07,339.69L384.44,337.4L388.81,338.73L393.17,339.16L397.54,336.45L401.91,337.49L406.28,324.47L410.65,331.63L415.02,323.45L419.39,327.44L423.75,320.62L428.12,331.08L432.49,318.15L436.86,325.34L441.23,321.08L445.6,310.06L449.97,313.95L454.33,317.44L458.7,304.63L467.44,312.93L471.81,310.93L476.18,311.42L480.55,300.84L484.91,294.08L489.28,300.8L498.02,298.52L502.39,290.04L506.76,297.9L511.13,280.59L515.49,298.92L519.86,294.39L524.23,283.46L528.6,288.99L537.34,271.24L541.71,260.41L546.08,263.22L550.44,221.65L554.81,250.72L559.18,232.11L563.55,237.39L567.92,239.55L572.29,240.88L576.66,212L581.02,230.79L585.39,233.23L589.76,227.15L594.13,219.59L598.5,219.49L602.87,188.11L607.24,180.24L611.6,188.64L615.97,168.86L620.34,168.92L624.71,154.14L629.08,136.67L633.45,133.18L637.82,126.7" style="vector-effect: non-scaling-stroke; fill: none; stroke: rgb(255, 0, 0); stroke-opacity: 1; stroke-width: 2px; opacity: 1;"/></g><g class="points"/><g class="text"/></g></g></g><g class="overplot"/><path class="xlines-above crisp" style="fill: none; stroke-width: 1px; stroke: rgb(36, 36, 36); stroke-opacity: 1;" d="M79,420.5H720"/><path class="ylines-above crisp" style="fill: none; stroke-width: 1px; stroke: rgb(36, 36, 36); stroke-opacity: 1;" d="M79.5,60V420"/><g class="overlines-above"/><g class="xaxislayer-above"><path class="xtick ticks crisp" d="M0,421v5" transform="translate(80,0)" style="stroke: rgb(68, 68, 68); stroke-opacity: 1; stroke-width: 1px;"/><path class="xtick ticks crisp" d="M0,421v5" transform="translate(167.37,0)" style="stroke: rgb(68, 68, 68); stroke-opacity: 1; stroke-width: 1px;"/><path class="xtick ticks crisp" d="M0,421v5" transform="translate(254.74,0)" style="stroke: rgb(68, 68, 68); stroke-opacity: 1; stroke-width: 1px;"/><path class="xtick ticks crisp" d="M0,421v5" transform="translate(342.12,0)" style="stroke: rgb(68, 68, 68); stroke-opacity: 1; stroke-width: 1px;"/><path class="xtick ticks crisp" d="M0,421v5" transform="translate(429.49,0)" style="stroke: rgb(68, 68, 68); stroke-opacity: 1; stroke-width: 1px;"/><path class="xtick ticks crisp" d="M0,421v5" transform="translate(516.86,0)" style="stroke: rgb(68, 68, 68); stroke-opacity: 1; stroke-width: 1px;"/><path class="xtick ticks crisp" d="M0,421v5" transform="translate(604.23,0)" style="stroke: rgb(68, 68, 68); stroke-opacity: 1; stroke-width: 1px;"/><path class="xtick ticks crisp" d="M0,421v5" transform="translate(691.6,0)" style="stroke: rgb(68, 68, 68); stroke-opacity: 1; stroke-width: 1px;"/><g class="xtick"><text text-anchor="middle" x="0" y="440.4" transform="translate(80,0)" style="font-family: 'Open Sans', verdana, arial, sans-serif; font-size: 12px; fill: rgb(36, 36, 36); fill-opacity: 1; white-space: pre;">0</text></g><g class="xtick"><text text-anchor="middle" x="0" y="440.4" transform="translate(167.37,0)" style="font-family: 'Open Sans', verdana, arial, sans-serif; font-size: 12px; fill: rgb(36, 36, 36); fill-opacity: 1; white-space: pre;">20</text></g><g class="xtick"><text text-anchor="middle" x="0" y="440.4" transform="translate(254.74,0)" style="font-family: 'Open Sans', verdana, arial, sans-serif; font-size: 12px; fill: rgb(36, 36, 36); fill-opacity: 1; white-space: pre;">40</text></g><g class="xtick"><text text-anchor="middle" x="0" y="440.4" transform="translate(342.12,0)" style="font-family: 'Open Sans', verdana, arial, sans-serif; font-size: 12px; fill: rgb(36, 36, 36); fill-opacity: 1; white-space: pre;">60</text></g><g class="xtick"><text text-anchor="middle" x="0" y="440.4" transform="translate(429.49,0)" style="font-family: 'Open Sans', verdana, arial, sans-serif; font-size: 12px; fill: rgb(36, 36, 36); fill-opacity: 1; white-space: pre;">80</text></g><g class="xtick"><text text-anchor="middle" x="0" y="440.4" transform="translate(516.86,0)" style="font-family: 'Open Sans', verdana, arial, sans-serif; font-size: 12px; fill: rgb(36, 36, 36); fill-opacity: 1; white-space: pre;">100</text></g><g class="xtick"><text text-anchor="middle" x="0" y="440.4" transform="translate(604.23,0)" style="font-family: 'Open Sans', verdana, arial, sans-serif; font-size: 12px; fill: rgb(36, 36, 36); fill-opacity: 1; white-space: pre;">120</text></g><g class="xtick"><text text-anchor="middle" x="0" y="440.4" transform="translate(691.6,0)" style="font-family: 'Open Sans', verdana, arial, sans-serif; font-size: 12px; fill: rgb(36, 36, 36); fill-opacity: 1; white-space: pre;">140</text></g></g><g class="yaxislayer-above"><path class="ytick ticks crisp" d="M79,0h-5" transform="translate(0,402)" style="stroke: rgb(68, 68, 68); stroke-opacity: 1; stroke-width: 1px;"/><path class="ytick ticks crisp" d="M79,0h-5" transform="translate(0,340.28)" style="stroke: rgb(68, 68, 68); stroke-opacity: 1; stroke-width: 1px;"/><path class="ytick ticks crisp" d="M79,0h-5" transform="translate(0,278.57)" style="stroke: rgb(68, 68, 68); stroke-opacity: 1; stroke-width: 1px;"/><path class="ytick ticks crisp" d="M79,0h-5" transform="translate(0,216.85)" style="stroke: rgb(68, 68, 68); stroke-opacity: 1; stroke-width: 1px;"/><path class="ytick ticks crisp" d="M79,0h-5" transform="translate(0,155.14)" style="stroke: rgb(68, 68, 68); stroke-opacity: 1; stroke-width: 1px;"/><path class="ytick ticks crisp" d="M79,0h-5" transform="translate(0,93.42)" style="stroke: rgb(68, 68, 68); stroke-opacity: 1; stroke-width: 1px;"/><g class="ytick"><text text-anchor="end" x="71.6" y="4.199999999999999" transform="translate(0,402)" style="font-family: 'Open Sans', verdana, arial, sans-serif; font-size: 12px; fill: rgb(36, 36, 36); fill-opacity: 1; white-space: pre;">0</text></g><g class="ytick"><text text-anchor="end" x="71.6" y="4.199999999999999" transform="translate(0,340.28)" style="font-family: 'Open Sans', verdana, arial, sans-serif; font-size: 12px; fill: rgb(36, 36, 36); fill-opacity: 1; white-space: pre;">2k</text></g><g class="ytick"><text text-anchor="end" x="71.6" y="4.199999999999999" transform="translate(0,278.57)" style="font-family: 'Open Sans', verdana, arial, sans-serif; font-size: 12px; fill: rgb(36, 36, 36); fill-opacity: 1; white-space: pre;">4k</text></g><g class="ytick"><text text-anchor="end" x="71.6" y="4.199999999999999" transform="translate(0,216.85)" style="font-family: 'Open Sans', verdana, arial, sans-serif; font-size: 12px; fill: rgb(36, 36, 36); fill-opacity: 1; white-space: pre;">6k</text></g><g class="ytick"><text text-anchor="end" x="71.6" y="4.199999999999999" transform="translate(0,155.14)" style="font-family: 'Open Sans', verdana, arial, sans-serif; font-size: 12px; fill: rgb(36, 36, 36); fill-opacity: 1; white-space: pre;">8k</text></g><g class="ytick"><text text-anchor="end" x="71.6" y="4.199999999999999" transform="translate(0,93.42)" style="font-family: 'Open Sans', verdana, arial, sans-serif; font-size: 12px; fill: rgb(36, 36, 36); fill-opacity: 1; white-space: pre;">10k</text></g></g><g class="overaxes-above"/></g></g><g class="polarlayer"/><g class="ternarylayer"/><g class="geolayer"/><g class="funnelarealayer"/><g class="pielayer"/><g class="treemaplayer"/><g class="sunburstlayer"/><g class="glimages"/><defs id="topdefs-6fed84"><g class="clips"/><clipPath id="legend6fed84"><rect width="284" height="29" x="0" y="0"/></clipPath></defs><g class="layer-above"><g class="imagelayer"/><g class="shapelayer"/></g><g class="infolayer"><g class="legend" pointer-events="all" transform="translate(80, 456.00000000000006)"><rect class="bg" shape-rendering="crispEdges" style="stroke: rgb(68, 68, 68); stroke-opacity: 1; fill: rgb(255, 255, 255); fill-opacity: 1; stroke-width: 0px;" width="284" height="29" x="0" y="0"/><g class="scrollbox" transform="translate(0, 0)" clip-path="url('#legend6fed84')"><text class="legendtitletext user-select-none" text-anchor="start" x="2" y="15.600000000000001" style="font-family: 'Open Sans', verdana, arial, sans-serif; font-size: 12px; fill: rgb(36, 36, 36); fill-opacity: 1; white-space: pre;">scenario</text><g class="groups" transform="translate(0, 0)"><g class="traces" transform="translate(50.15625, 14.5)" style="opacity: 1;"><text class="legendtext user-select-none" text-anchor="start" x="40" y="4.680000000000001" style="font-family: 'Open Sans', verdana, arial, sans-serif; font-size: 12px; fill: rgb(36, 36, 36); fill-opacity: 1; white-space: pre;">simulated</text><g class="layers" style="opacity: 1;"><g class="legendfill"/><g class="legendlines"><path class="js-line" d="M5,0h30" style="fill: none; stroke: rgb(31, 119, 180); stroke-opacity: 1; stroke-width: 2px;"/></g><g class="legendsymbols"><g class="legendpoints"/></g></g><rect class="legendtoggle" pointer-events="all" x="0" y="-9.5" width="101.171875" height="19" style="cursor: pointer; fill: rgb(0, 0, 0); fill-opacity: 0;"/></g></g><g class="groups" transform="translate(103.671875, 0)"><g class="traces" transform="translate(50.15625, 14.5)" style="opacity: 1;"><text class="legendtext user-select-none" text-anchor="start" x="40" y="4.680000000000001" style="font-family: 'Open Sans', verdana, arial, sans-serif; font-size: 12px; fill: rgb(36, 36, 36); fill-opacity: 1; white-space: pre;">historical data</text><g class="layers" style="opacity: 1;"><g class="legendfill"/><g class="legendlines"><path class="js-line" d="M5,0h30" style="fill: none; stroke: rgb(255, 0, 0); stroke-opacity: 1; stroke-width: 2px;"/></g><g class="legendsymbols"><g class="legendpoints"/></g></g><rect class="legendtoggle" pointer-events="all" x="0" y="-9.5" width="127.65625" height="19" style="cursor: pointer; fill: rgb(0, 0, 0); fill-opacity: 0;"/></g></g></g><rect class="scrollbar" rx="20" ry="3" width="0" height="0" style="fill: rgb(128, 139, 164); fill-opacity: 1;" x="0" y="0"/></g><g class="g-gtitle"/><g class="g-xtitle"><text class="xtitle" x="400" y="467.70625" text-anchor="middle" style="font-family: 'Open Sans', verdana, arial, sans-serif; font-size: 14px; fill: rgb(36, 36, 36); opacity: 1; font-weight: normal; white-space: pre;">Days</text></g><g class="g-ytitle"><text class="ytitle" transform="rotate(-90,24.434375000000003,240)" x="24.434375000000003" y="240" text-anchor="middle" style="font-family: 'Open Sans', verdana, arial, sans-serif; font-size: 14px; fill: rgb(36, 36, 36); opacity: 1; font-weight: normal; white-space: pre;">New cases per day</text></g></g></svg>